<svg width="1024" height="753" viewBox="0 0 1024 753" fill="none" xmlns="http://www.w3.org/2000/svg">
<g clip-path="url(#clip0_122_130)">
<rect width="1024" height="753" fill="#121214"/>
<g opacity="0.2" filter="url(#filter0_f_122_130)">
<ellipse cx="551.5" cy="34" rx="670.5" ry="350" fill="#338AF3"/>
</g>
<path d="M72.0349 270C73.5302 270 74.6622 270.63 75.4308 271.891C76.2134 273.138 76.6047 274.953 76.6047 277.336C76.6047 279.719 76.2134 281.541 75.4308 282.802C74.6622 284.063 73.5302 284.693 72.0349 284.693C70.5536 284.693 69.4216 284.063 68.639 282.802C67.8564 281.541 67.4651 279.719 67.4651 277.336C67.4651 274.967 67.8564 273.152 68.639 271.891C69.4216 270.63 70.5536 270 72.0349 270ZM68.9534 277.336C68.9534 279.026 69.1072 280.35 69.4146 281.306L74.0683 272.099C73.5791 271.448 72.9013 271.122 72.0349 271.122C71.0706 271.122 70.316 271.635 69.771 272.66C69.2259 273.672 68.9534 275.23 68.9534 277.336ZM72.0349 283.55C73.0131 283.55 73.7748 283.044 74.3198 282.033C74.8648 281.008 75.1373 279.442 75.1373 277.336C75.1373 275.549 74.9627 274.163 74.6133 273.18L69.9596 282.469C70.4627 283.19 71.1545 283.55 72.0349 283.55Z" fill="url(#paint0_linear_122_130)" fill-opacity="0.6"/>
<path d="M73.2926 307.135H76.3741V308.236H68.3874V307.135H71.9511V295.455L68.5551 297.471L67.9682 296.536L72.1607 293.959H73.2926V307.135Z" fill="url(#paint1_linear_122_130)" fill-opacity="0.6"/>
<path d="M72.0349 317.502C73.5302 317.502 74.6622 318.133 75.4308 319.393C76.2134 320.64 76.6047 322.455 76.6047 324.838C76.6047 327.221 76.2134 329.043 75.4308 330.304C74.6622 331.565 73.5302 332.195 72.0349 332.195C70.5536 332.195 69.4216 331.565 68.639 330.304C67.8564 329.043 67.4651 327.221 67.4651 324.838C67.4651 322.469 67.8564 320.654 68.639 319.393C69.4216 318.133 70.5536 317.502 72.0349 317.502ZM68.9534 324.838C68.9534 326.529 69.1072 327.852 69.4146 328.808L74.0683 319.601C73.5791 318.95 72.9013 318.624 72.0349 318.624C71.0706 318.624 70.316 319.137 69.771 320.162C69.2259 321.174 68.9534 322.732 68.9534 324.838ZM72.0349 331.052C73.0131 331.052 73.7748 330.546 74.3198 329.535C74.8648 328.51 75.1373 326.944 75.1373 324.838C75.1373 323.051 74.9627 321.665 74.6133 320.682L69.9596 329.971C70.4627 330.692 71.1545 331.052 72.0349 331.052Z" fill="url(#paint2_linear_122_130)" fill-opacity="0.6"/>
<path d="M73.2926 354.637H76.3741V355.738H68.3874V354.637H71.9511V342.957L68.5551 344.973L67.9682 344.038L72.1607 341.461H73.2926V354.637Z" fill="url(#paint3_linear_122_130)" fill-opacity="0.6"/>
<path d="M73.2926 378.388H76.3741V379.489H68.3874V378.388H71.9511V366.708L68.5551 368.724L67.9682 367.789L72.1607 365.212H73.2926V378.388Z" fill="url(#paint4_linear_122_130)" fill-opacity="0.6"/>
<path d="M72.0349 388.755C73.5302 388.755 74.6622 389.386 75.4308 390.646C76.2134 391.893 76.6047 393.708 76.6047 396.091C76.6047 398.474 76.2134 400.296 75.4308 401.557C74.6622 402.818 73.5302 403.448 72.0349 403.448C70.5536 403.448 69.4216 402.818 68.639 401.557C67.8564 400.296 67.4651 398.474 67.4651 396.091C67.4651 393.722 67.8564 391.907 68.639 390.646C69.4216 389.386 70.5536 388.755 72.0349 388.755ZM68.9534 396.091C68.9534 397.782 69.1072 399.105 69.4146 400.061L74.0683 390.854C73.5791 390.203 72.9013 389.878 72.0349 389.878C71.0706 389.878 70.316 390.39 69.771 391.415C69.2259 392.427 68.9534 393.985 68.9534 396.091ZM72.0349 402.305C73.0131 402.305 73.7748 401.8 74.3198 400.788C74.8648 399.763 75.1373 398.197 75.1373 396.091C75.1373 394.304 74.9627 392.919 74.6133 391.935L69.9596 401.225C70.4627 401.945 71.1545 402.305 72.0349 402.305Z" fill="url(#paint5_linear_122_130)" fill-opacity="0.6"/>
<path d="M73.2926 425.89H76.3741V426.992H68.3874V425.89H71.9511V414.21L68.5551 416.226L67.9682 415.291L72.1607 412.714H73.2926V425.89Z" fill="url(#paint6_linear_122_130)" fill-opacity="0.6"/>
<path d="M72.0349 436.257C73.5302 436.257 74.6622 436.888 75.4308 438.149C76.2134 439.396 76.6047 441.211 76.6047 443.594C76.6047 445.977 76.2134 447.798 75.4308 449.059C74.6622 450.32 73.5302 450.95 72.0349 450.95C70.5536 450.95 69.4216 450.32 68.639 449.059C67.8564 447.798 67.4651 445.977 67.4651 443.594C67.4651 441.224 67.8564 439.409 68.639 438.149C69.4216 436.888 70.5536 436.257 72.0349 436.257ZM68.9534 443.594C68.9534 445.284 69.1072 446.607 69.4146 447.563L74.0683 438.356C73.5791 437.705 72.9013 437.38 72.0349 437.38C71.0706 437.38 70.316 437.892 69.771 438.918C69.2259 439.929 68.9534 441.488 68.9534 443.594ZM72.0349 449.807C73.0131 449.807 73.7748 449.302 74.3198 448.29C74.8648 447.265 75.1373 445.699 75.1373 443.594C75.1373 441.806 74.9627 440.421 74.6133 439.437L69.9596 448.727C70.4627 449.447 71.1545 449.807 72.0349 449.807Z" fill="url(#paint7_linear_122_130)" fill-opacity="0.6"/>
<path d="M72.0349 460.008C73.5302 460.008 74.6622 460.639 75.4308 461.9C76.2134 463.147 76.6047 464.962 76.6047 467.345C76.6047 469.728 76.2134 471.549 75.4308 472.81C74.6622 474.071 73.5302 474.701 72.0349 474.701C70.5536 474.701 69.4216 474.071 68.639 472.81C67.8564 471.549 67.4651 469.728 67.4651 467.345C67.4651 464.975 67.8564 463.16 68.639 461.9C69.4216 460.639 70.5536 460.008 72.0349 460.008ZM68.9534 467.345C68.9534 469.035 69.1072 470.358 69.4146 471.314L74.0683 462.107C73.5791 461.456 72.9013 461.131 72.0349 461.131C71.0706 461.131 70.316 461.643 69.771 462.669C69.2259 463.68 68.9534 465.239 68.9534 467.345ZM72.0349 473.558C73.0131 473.558 73.7748 473.053 74.3198 472.041C74.8648 471.016 75.1373 469.451 75.1373 467.345C75.1373 465.557 74.9627 464.172 74.6133 463.188L69.9596 472.478C70.4627 473.198 71.1545 473.558 72.0349 473.558Z" fill="url(#paint8_linear_122_130)" fill-opacity="0.6"/>
<path d="M73.2926 497.143H76.3741V498.245H68.3874V497.143H71.9511V485.464L68.5551 487.48L67.9682 486.544L72.1607 483.967H73.2926V497.143Z" fill="url(#paint9_linear_122_130)" fill-opacity="0.6"/>
<path d="M72.0349 507.511C73.5302 507.511 74.6622 508.141 75.4308 509.402C76.2134 510.649 76.6047 512.464 76.6047 514.847C76.6047 517.23 76.2134 519.052 75.4308 520.312C74.6622 521.573 73.5302 522.204 72.0349 522.204C70.5536 522.204 69.4216 521.573 68.639 520.312C67.8564 519.052 67.4651 517.23 67.4651 514.847C67.4651 512.478 67.8564 510.663 68.639 509.402C69.4216 508.141 70.5536 507.511 72.0349 507.511ZM68.9534 514.847C68.9534 516.537 69.1072 517.86 69.4146 518.816L74.0683 509.61C73.5791 508.958 72.9013 508.633 72.0349 508.633C71.0706 508.633 70.316 509.145 69.771 510.171C69.2259 511.182 68.9534 512.741 68.9534 514.847ZM72.0349 521.061C73.0131 521.061 73.7748 520.555 74.3198 519.543C74.8648 518.518 75.1373 516.953 75.1373 514.847C75.1373 513.059 74.9627 511.674 74.6133 510.69L69.9596 519.98C70.4627 520.7 71.1545 521.061 72.0349 521.061Z" fill="url(#paint10_linear_122_130)" fill-opacity="0.6"/>
<path d="M73.2926 544.645H76.3741V545.747H68.3874V544.645H71.9511V532.966L68.5551 534.982L67.9682 534.046L72.1607 531.469H73.2926V544.645Z" fill="url(#paint11_linear_122_130)" fill-opacity="0.6"/>
<path d="M73.2926 568.396H76.3741V569.498H68.3874V568.396H71.9511V556.717L68.5551 558.733L67.9682 557.798L72.1607 555.221H73.2926V568.396Z" fill="url(#paint12_linear_122_130)" fill-opacity="0.6"/>
<path d="M110.965 317.502C112.46 317.502 113.592 318.133 114.361 319.393C115.144 320.64 115.535 322.455 115.535 324.838C115.535 327.221 115.144 329.043 114.361 330.304C113.592 331.565 112.46 332.195 110.965 332.195C109.484 332.195 108.352 331.565 107.569 330.304C106.787 329.043 106.395 327.221 106.395 324.838C106.395 322.469 106.787 320.654 107.569 319.393C108.352 318.133 109.484 317.502 110.965 317.502ZM107.884 324.838C107.884 326.529 108.037 327.852 108.345 328.808L112.998 319.601C112.509 318.95 111.832 318.624 110.965 318.624C110.001 318.624 109.246 319.137 108.701 320.162C108.156 321.174 107.884 322.732 107.884 324.838ZM110.965 331.052C111.943 331.052 112.705 330.546 113.25 329.535C113.795 328.51 114.068 326.944 114.068 324.838C114.068 323.051 113.893 321.665 113.543 320.682L108.89 329.971C109.393 330.692 110.085 331.052 110.965 331.052Z" fill="url(#paint13_linear_122_130)" fill-opacity="0.6"/>
<path d="M112.223 354.637H115.304V355.738H107.318V354.637H110.881V342.957L107.485 344.973L106.898 344.038L111.091 341.461H112.223V354.637Z" fill="url(#paint14_linear_122_130)" fill-opacity="0.6"/>
<path d="M110.965 365.004C112.46 365.004 113.592 365.635 114.361 366.895C115.144 368.142 115.535 369.957 115.535 372.34C115.535 374.723 115.144 376.545 114.361 377.806C113.592 379.067 112.46 379.697 110.965 379.697C109.484 379.697 108.352 379.067 107.569 377.806C106.787 376.545 106.395 374.723 106.395 372.34C106.395 369.971 106.787 368.156 107.569 366.895C108.352 365.635 109.484 365.004 110.965 365.004ZM107.884 372.34C107.884 374.031 108.037 375.354 108.345 376.31L112.998 367.103C112.509 366.452 111.832 366.126 110.965 366.126C110.001 366.126 109.246 366.639 108.701 367.664C108.156 368.676 107.884 370.234 107.884 372.34ZM110.965 378.554C111.943 378.554 112.705 378.049 113.25 377.037C113.795 376.012 114.068 374.446 114.068 372.34C114.068 370.553 113.893 369.168 113.543 368.184L108.89 377.474C109.393 378.194 110.085 378.554 110.965 378.554Z" fill="url(#paint15_linear_122_130)" fill-opacity="0.6"/>
<path d="M110.965 388.755C112.46 388.755 113.592 389.386 114.361 390.646C115.144 391.893 115.535 393.708 115.535 396.091C115.535 398.474 115.144 400.296 114.361 401.557C113.592 402.818 112.46 403.448 110.965 403.448C109.484 403.448 108.352 402.818 107.569 401.557C106.787 400.296 106.395 398.474 106.395 396.091C106.395 393.722 106.787 391.907 107.569 390.646C108.352 389.386 109.484 388.755 110.965 388.755ZM107.884 396.091C107.884 397.782 108.037 399.105 108.345 400.061L112.998 390.854C112.509 390.203 111.832 389.878 110.965 389.878C110.001 389.878 109.246 390.39 108.701 391.415C108.156 392.427 107.884 393.985 107.884 396.091ZM110.965 402.305C111.943 402.305 112.705 401.8 113.25 400.788C113.795 399.763 114.068 398.197 114.068 396.091C114.068 394.304 113.893 392.919 113.543 391.935L108.89 401.225C109.393 401.945 110.085 402.305 110.965 402.305Z" fill="url(#paint16_linear_122_130)" fill-opacity="0.6"/>
<path d="M112.223 425.89H115.304V426.992H107.318V425.89H110.881V414.21L107.485 416.226L106.898 415.291L111.091 412.714H112.223V425.89Z" fill="url(#paint17_linear_122_130)" fill-opacity="0.6"/>
<path d="M110.965 436.257C112.46 436.257 113.592 436.888 114.361 438.149C115.144 439.396 115.535 441.211 115.535 443.594C115.535 445.977 115.144 447.798 114.361 449.059C113.592 450.32 112.46 450.95 110.965 450.95C109.484 450.95 108.352 450.32 107.569 449.059C106.787 447.798 106.395 445.977 106.395 443.594C106.395 441.224 106.787 439.409 107.569 438.149C108.352 436.888 109.484 436.257 110.965 436.257ZM107.884 443.594C107.884 445.284 108.037 446.607 108.345 447.563L112.998 438.356C112.509 437.705 111.832 437.38 110.965 437.38C110.001 437.38 109.246 437.892 108.701 438.918C108.156 439.929 107.884 441.488 107.884 443.594ZM110.965 449.807C111.943 449.807 112.705 449.302 113.25 448.29C113.795 447.265 114.068 445.699 114.068 443.594C114.068 441.806 113.893 440.421 113.543 439.437L108.89 448.727C109.393 449.447 110.085 449.807 110.965 449.807Z" fill="url(#paint18_linear_122_130)" fill-opacity="0.6"/>
<path d="M112.223 473.392H115.304V474.494H107.318V473.392H110.881V461.713L107.485 463.728L106.898 462.793L111.091 460.216H112.223V473.392Z" fill="url(#paint19_linear_122_130)" fill-opacity="0.6"/>
<path d="M110.965 483.76C112.46 483.76 113.592 484.39 114.361 485.651C115.144 486.898 115.535 488.713 115.535 491.096C115.535 493.479 115.144 495.301 114.361 496.561C113.592 497.822 112.46 498.453 110.965 498.453C109.484 498.453 108.352 497.822 107.569 496.561C106.787 495.301 106.395 493.479 106.395 491.096C106.395 488.726 106.787 486.911 107.569 485.651C108.352 484.39 109.484 483.76 110.965 483.76ZM107.884 491.096C107.884 492.786 108.037 494.109 108.345 495.065L112.998 485.859C112.509 485.207 111.832 484.882 110.965 484.882C110.001 484.882 109.246 485.394 108.701 486.42C108.156 487.431 107.884 488.99 107.884 491.096ZM110.965 497.31C111.943 497.31 112.705 496.804 113.25 495.792C113.795 494.767 114.068 493.202 114.068 491.096C114.068 489.308 113.893 487.923 113.543 486.939L108.89 496.229C109.393 496.949 110.085 497.31 110.965 497.31Z" fill="url(#paint20_linear_122_130)" fill-opacity="0.6"/>
<path d="M110.965 507.511C112.46 507.511 113.592 508.141 114.361 509.402C115.144 510.649 115.535 512.464 115.535 514.847C115.535 517.23 115.144 519.052 114.361 520.312C113.592 521.573 112.46 522.204 110.965 522.204C109.484 522.204 108.352 521.573 107.569 520.312C106.787 519.052 106.395 517.23 106.395 514.847C106.395 512.478 106.787 510.663 107.569 509.402C108.352 508.141 109.484 507.511 110.965 507.511ZM107.884 514.847C107.884 516.537 108.037 517.86 108.345 518.816L112.998 509.61C112.509 508.958 111.832 508.633 110.965 508.633C110.001 508.633 109.246 509.145 108.701 510.171C108.156 511.182 107.884 512.741 107.884 514.847ZM110.965 521.061C111.943 521.061 112.705 520.555 113.25 519.543C113.795 518.518 114.068 516.953 114.068 514.847C114.068 513.059 113.893 511.674 113.543 510.69L108.89 519.98C109.393 520.7 110.085 521.061 110.965 521.061Z" fill="url(#paint21_linear_122_130)" fill-opacity="0.6"/>
<path d="M112.223 544.645H115.304V545.747H107.318V544.645H110.881V532.966L107.485 534.982L106.898 534.046L111.091 531.469H112.223V544.645Z" fill="url(#paint22_linear_122_130)" fill-opacity="0.6"/>
<path d="M110.965 555.013C112.46 555.013 113.592 555.643 114.361 556.904C115.144 558.151 115.535 559.966 115.535 562.349C115.535 564.732 115.144 566.554 114.361 567.815C113.592 569.075 112.46 569.706 110.965 569.706C109.484 569.706 108.352 569.075 107.569 567.815C106.787 566.554 106.395 564.732 106.395 562.349C106.395 559.98 106.787 558.165 107.569 556.904C108.352 555.643 109.484 555.013 110.965 555.013ZM107.884 562.349C107.884 564.039 108.037 565.362 108.345 566.318L112.998 557.112C112.509 556.461 111.832 556.135 110.965 556.135C110.001 556.135 109.246 556.648 108.701 557.673C108.156 558.684 107.884 560.243 107.884 562.349ZM110.965 568.563C111.943 568.563 112.705 568.057 113.25 567.046C113.795 566.02 114.068 564.455 114.068 562.349C114.068 560.562 113.893 559.176 113.543 558.192L108.89 567.482C109.393 568.202 110.085 568.563 110.965 568.563Z" fill="url(#paint23_linear_122_130)" fill-opacity="0.6"/>
<path d="M112.223 592.148H115.304V593.249H107.318V592.148H110.881V580.468L107.485 582.484L106.898 581.549L111.091 578.972H112.223V592.148Z" fill="url(#paint24_linear_122_130)" fill-opacity="0.6"/>
<path d="M112.223 615.899H115.304V617H107.318V615.899H110.881V604.219L107.485 606.235L106.898 605.3L111.091 602.723H112.223V615.899Z" fill="url(#paint25_linear_122_130)" fill-opacity="0.6"/>
<path d="M52.5698 341.253C54.0651 341.253 55.1971 341.884 55.9657 343.144C56.7483 344.391 57.1396 346.206 57.1396 348.589C57.1396 350.972 56.7483 352.794 55.9657 354.055C55.1971 355.316 54.0651 355.946 52.5698 355.946C51.0885 355.946 49.9565 355.316 49.1739 354.055C48.3913 352.794 48 350.972 48 348.589C48 346.22 48.3913 344.405 49.1739 343.144C49.9565 341.884 51.0885 341.253 52.5698 341.253ZM49.4883 348.589C49.4883 350.28 49.6421 351.603 49.9495 352.559L54.6032 343.352C54.114 342.701 53.4363 342.375 52.5698 342.375C51.6055 342.375 50.8509 342.888 50.3059 343.913C49.7608 344.925 49.4883 346.483 49.4883 348.589ZM52.5698 354.803C53.5481 354.803 54.3097 354.297 54.8547 353.286C55.3997 352.261 55.6722 350.695 55.6722 348.589C55.6722 346.802 55.4976 345.417 55.1482 344.433L50.4945 353.722C50.9976 354.443 51.6894 354.803 52.5698 354.803Z" fill="url(#paint26_linear_122_130)" fill-opacity="0.6"/>
<path d="M52.5698 365.004C54.0651 365.004 55.1971 365.635 55.9657 366.895C56.7483 368.142 57.1396 369.957 57.1396 372.34C57.1396 374.723 56.7483 376.545 55.9657 377.806C55.1971 379.067 54.0651 379.697 52.5698 379.697C51.0885 379.697 49.9565 379.067 49.1739 377.806C48.3913 376.545 48 374.723 48 372.34C48 369.971 48.3913 368.156 49.1739 366.895C49.9565 365.635 51.0885 365.004 52.5698 365.004ZM49.4883 372.34C49.4883 374.031 49.6421 375.354 49.9495 376.31L54.6032 367.103C54.114 366.452 53.4363 366.126 52.5698 366.126C51.6055 366.126 50.8509 366.639 50.3059 367.664C49.7608 368.676 49.4883 370.234 49.4883 372.34ZM52.5698 378.554C53.5481 378.554 54.3097 378.049 54.8547 377.037C55.3997 376.012 55.6722 374.446 55.6722 372.34C55.6722 370.553 55.4976 369.168 55.1482 368.184L50.4945 377.474C50.9976 378.194 51.6894 378.554 52.5698 378.554Z" fill="url(#paint27_linear_122_130)" fill-opacity="0.6"/>
<path d="M53.8276 402.139H56.909V403.24H48.9223V402.139H52.486V390.459L49.09 392.475L48.5031 391.54L52.6956 388.963H53.8276V402.139Z" fill="url(#paint28_linear_122_130)" fill-opacity="0.6"/>
<path d="M52.5698 412.506C54.0651 412.506 55.1971 413.137 55.9657 414.398C56.7483 415.644 57.1396 417.459 57.1396 419.842C57.1396 422.225 56.7483 424.047 55.9657 425.308C55.1971 426.569 54.0651 427.199 52.5698 427.199C51.0885 427.199 49.9565 426.569 49.1739 425.308C48.3913 424.047 48 422.225 48 419.842C48 417.473 48.3913 415.658 49.1739 414.398C49.9565 413.137 51.0885 412.506 52.5698 412.506ZM49.4883 419.842C49.4883 421.533 49.6421 422.856 49.9495 423.812L54.6032 414.605C54.114 413.954 53.4363 413.629 52.5698 413.629C51.6055 413.629 50.8509 414.141 50.3059 415.166C49.7608 416.178 49.4883 417.737 49.4883 419.842ZM52.5698 426.056C53.5481 426.056 54.3097 425.551 54.8547 424.539C55.3997 423.514 55.6722 421.948 55.6722 419.842C55.6722 418.055 55.4976 416.67 55.1482 415.686L50.4945 424.976C50.9976 425.696 51.6894 426.056 52.5698 426.056Z" fill="url(#paint29_linear_122_130)" fill-opacity="0.6"/>
<path d="M53.8276 449.641H56.909V450.743H48.9223V449.641H52.486V437.962L49.09 439.977L48.5031 439.042L52.6956 436.465H53.8276V449.641Z" fill="url(#paint30_linear_122_130)" fill-opacity="0.6"/>
<path d="M53.8276 473.392H56.909V474.494H48.9223V473.392H52.486V461.713L49.09 463.728L48.5031 462.793L52.6956 460.216H53.8276V473.392Z" fill="url(#paint31_linear_122_130)" fill-opacity="0.6"/>
<path d="M92.7577 307.135H95.8392V308.236H87.8525V307.135H91.4162V295.455L88.0202 297.471L87.4333 296.536L91.6258 293.959H92.7577V307.135Z" fill="url(#paint32_linear_122_130)" fill-opacity="0.6"/>
<path d="M91.5 317.502C92.9953 317.502 94.1273 318.133 94.8959 319.393C95.6785 320.64 96.0698 322.455 96.0698 324.838C96.0698 327.221 95.6785 329.043 94.8959 330.304C94.1273 331.565 92.9953 332.195 91.5 332.195C90.0187 332.195 88.8867 331.565 88.1041 330.304C87.3215 329.043 86.9302 327.221 86.9302 324.838C86.9302 322.469 87.3215 320.654 88.1041 319.393C88.8867 318.133 90.0187 317.502 91.5 317.502ZM88.4185 324.838C88.4185 326.529 88.5723 327.852 88.8797 328.808L93.5334 319.601C93.0442 318.95 92.3664 318.624 91.5 318.624C90.5357 318.624 89.7811 319.137 89.2361 320.162C88.691 321.174 88.4185 322.732 88.4185 324.838ZM91.5 331.052C92.4782 331.052 93.2399 330.546 93.7849 329.535C94.3299 328.51 94.6024 326.944 94.6024 324.838C94.6024 323.051 94.4277 321.665 94.0784 320.682L89.4247 329.971C89.9278 330.692 90.6196 331.052 91.5 331.052Z" fill="url(#paint33_linear_122_130)" fill-opacity="0.6"/>
<path d="M92.7577 354.637H95.8392V355.738H87.8525V354.637H91.4162V342.957L88.0202 344.973L87.4333 344.038L91.6258 341.461H92.7577V354.637Z" fill="url(#paint34_linear_122_130)" fill-opacity="0.6"/>
<path d="M92.7577 378.388H95.8392V379.489H87.8525V378.388H91.4162V366.708L88.0202 368.724L87.4333 367.789L91.6258 365.212H92.7577V378.388Z" fill="url(#paint35_linear_122_130)" fill-opacity="0.6"/>
<path d="M91.5 388.755C92.9953 388.755 94.1273 389.386 94.8959 390.646C95.6785 391.893 96.0698 393.708 96.0698 396.091C96.0698 398.474 95.6785 400.296 94.8959 401.557C94.1273 402.818 92.9953 403.448 91.5 403.448C90.0187 403.448 88.8867 402.818 88.1041 401.557C87.3215 400.296 86.9302 398.474 86.9302 396.091C86.9302 393.722 87.3215 391.907 88.1041 390.646C88.8867 389.386 90.0187 388.755 91.5 388.755ZM88.4185 396.091C88.4185 397.782 88.5723 399.105 88.8797 400.061L93.5334 390.854C93.0442 390.203 92.3664 389.878 91.5 389.878C90.5357 389.878 89.7811 390.39 89.2361 391.415C88.691 392.427 88.4185 393.985 88.4185 396.091ZM91.5 402.305C92.4782 402.305 93.2399 401.8 93.7849 400.788C94.3299 399.763 94.6024 398.197 94.6024 396.091C94.6024 394.304 94.4277 392.919 94.0784 391.935L89.4247 401.225C89.9278 401.945 90.6196 402.305 91.5 402.305Z" fill="url(#paint36_linear_122_130)" fill-opacity="0.6"/>
<path d="M92.7577 425.89H95.8392V426.992H87.8525V425.89H91.4162V414.21L88.0202 416.226L87.4333 415.291L91.6258 412.714H92.7577V425.89Z" fill="url(#paint37_linear_122_130)" fill-opacity="0.6"/>
<path d="M92.7577 449.641H95.8392V450.743H87.8525V449.641H91.4162V437.962L88.0202 439.977L87.4333 439.042L91.6258 436.465H92.7577V449.641Z" fill="url(#paint38_linear_122_130)" fill-opacity="0.6"/>
<path d="M91.5 460.008C92.9953 460.008 94.1273 460.639 94.8959 461.9C95.6785 463.147 96.0698 464.962 96.0698 467.345C96.0698 469.728 95.6785 471.549 94.8959 472.81C94.1273 474.071 92.9953 474.701 91.5 474.701C90.0187 474.701 88.8867 474.071 88.1041 472.81C87.3215 471.549 86.9302 469.728 86.9302 467.345C86.9302 464.975 87.3215 463.16 88.1041 461.9C88.8867 460.639 90.0187 460.008 91.5 460.008ZM88.4185 467.345C88.4185 469.035 88.5723 470.358 88.8797 471.314L93.5334 462.107C93.0442 461.456 92.3664 461.131 91.5 461.131C90.5357 461.131 89.7811 461.643 89.2361 462.669C88.691 463.68 88.4185 465.239 88.4185 467.345ZM91.5 473.558C92.4782 473.558 93.2399 473.053 93.7849 472.041C94.3299 471.016 94.6024 469.451 94.6024 467.345C94.6024 465.557 94.4277 464.172 94.0784 463.188L89.4247 472.478C89.9278 473.198 90.6196 473.558 91.5 473.558Z" fill="url(#paint39_linear_122_130)" fill-opacity="0.6"/>
<path d="M92.7577 497.143H95.8392V498.245H87.8525V497.143H91.4162V485.464L88.0202 487.48L87.4333 486.544L91.6258 483.967H92.7577V497.143Z" fill="url(#paint40_linear_122_130)" fill-opacity="0.6"/>
<path d="M91.5 507.511C92.9953 507.511 94.1273 508.141 94.8959 509.402C95.6785 510.649 96.0698 512.464 96.0698 514.847C96.0698 517.23 95.6785 519.052 94.8959 520.312C94.1273 521.573 92.9953 522.204 91.5 522.204C90.0187 522.204 88.8867 521.573 88.1041 520.312C87.3215 519.052 86.9302 517.23 86.9302 514.847C86.9302 512.478 87.3215 510.663 88.1041 509.402C88.8867 508.141 90.0187 507.511 91.5 507.511ZM88.4185 514.847C88.4185 516.537 88.5723 517.86 88.8797 518.816L93.5334 509.61C93.0442 508.958 92.3664 508.633 91.5 508.633C90.5357 508.633 89.7811 509.145 89.2361 510.171C88.691 511.182 88.4185 512.741 88.4185 514.847ZM91.5 521.061C92.4782 521.061 93.2399 520.555 93.7849 519.543C94.3299 518.518 94.6024 516.953 94.6024 514.847C94.6024 513.059 94.4277 511.674 94.0784 510.69L89.4247 519.98C89.9278 520.7 90.6196 521.061 91.5 521.061Z" fill="url(#paint41_linear_122_130)" fill-opacity="0.6"/>
<path d="M130.43 293.751C131.926 293.751 133.057 294.381 133.826 295.642C134.609 296.889 135 298.704 135 301.087C135 303.47 134.609 305.292 133.826 306.553C133.057 307.814 131.926 308.444 130.43 308.444C128.949 308.444 127.817 307.814 127.034 306.553C126.252 305.292 125.86 303.47 125.86 301.087C125.86 298.718 126.252 296.903 127.034 295.642C127.817 294.381 128.949 293.751 130.43 293.751ZM127.349 301.087C127.349 302.777 127.502 304.101 127.81 305.057L132.464 295.85C131.974 295.199 131.297 294.873 130.43 294.873C129.466 294.873 128.711 295.386 128.166 296.411C127.621 297.423 127.349 298.981 127.349 301.087ZM130.43 307.301C131.408 307.301 132.17 306.795 132.715 305.784C133.26 304.759 133.533 303.193 133.533 301.087C133.533 299.3 133.358 297.914 133.009 296.931L128.355 306.22C128.858 306.941 129.55 307.301 130.43 307.301Z" fill="url(#paint42_linear_122_130)" fill-opacity="0.6"/>
<path d="M131.688 330.886H134.769V331.987H126.783V330.886H130.346V319.206L126.95 321.222L126.363 320.287L130.556 317.71H131.688V330.886Z" fill="url(#paint43_linear_122_130)" fill-opacity="0.6"/>
<path d="M131.688 354.637H134.769V355.738H126.783V354.637H130.346V342.957L126.95 344.973L126.363 344.038L130.556 341.461H131.688V354.637Z" fill="url(#paint44_linear_122_130)" fill-opacity="0.6"/>
<path d="M130.43 365.004C131.926 365.004 133.057 365.635 133.826 366.895C134.609 368.142 135 369.957 135 372.34C135 374.723 134.609 376.545 133.826 377.806C133.057 379.067 131.926 379.697 130.43 379.697C128.949 379.697 127.817 379.067 127.034 377.806C126.252 376.545 125.86 374.723 125.86 372.34C125.86 369.971 126.252 368.156 127.034 366.895C127.817 365.635 128.949 365.004 130.43 365.004ZM127.349 372.34C127.349 374.031 127.502 375.354 127.81 376.31L132.464 367.103C131.974 366.452 131.297 366.126 130.43 366.126C129.466 366.126 128.711 366.639 128.166 367.664C127.621 368.676 127.349 370.234 127.349 372.34ZM130.43 378.554C131.408 378.554 132.17 378.049 132.715 377.037C133.26 376.012 133.533 374.446 133.533 372.34C133.533 370.553 133.358 369.168 133.009 368.184L128.355 377.474C128.858 378.194 129.55 378.554 130.43 378.554Z" fill="url(#paint45_linear_122_130)" fill-opacity="0.6"/>
<path d="M130.43 388.755C131.926 388.755 133.057 389.386 133.826 390.646C134.609 391.893 135 393.708 135 396.091C135 398.474 134.609 400.296 133.826 401.557C133.057 402.818 131.926 403.448 130.43 403.448C128.949 403.448 127.817 402.818 127.034 401.557C126.252 400.296 125.86 398.474 125.86 396.091C125.86 393.722 126.252 391.907 127.034 390.646C127.817 389.386 128.949 388.755 130.43 388.755ZM127.349 396.091C127.349 397.782 127.502 399.105 127.81 400.061L132.464 390.854C131.974 390.203 131.297 389.878 130.43 389.878C129.466 389.878 128.711 390.39 128.166 391.415C127.621 392.427 127.349 393.985 127.349 396.091ZM130.43 402.305C131.408 402.305 132.17 401.8 132.715 400.788C133.26 399.763 133.533 398.197 133.533 396.091C133.533 394.304 133.358 392.919 133.009 391.935L128.355 401.225C128.858 401.945 129.55 402.305 130.43 402.305Z" fill="url(#paint46_linear_122_130)" fill-opacity="0.6"/>
<g opacity="0.6">
<path d="M958.93 -30C960.356 -30 961.436 -29.395 962.17 -28.1851C962.916 -26.9885 963.29 -25.2468 963.29 -22.9599C963.29 -20.673 962.916 -18.9246 962.17 -17.7147C961.436 -16.5048 960.356 -15.8998 958.93 -15.8998C957.517 -15.8998 956.437 -16.5048 955.69 -17.7147C954.943 -18.9246 954.57 -20.673 954.57 -22.9599C954.57 -25.2335 954.943 -26.9752 955.69 -28.1851C956.437 -29.395 957.517 -30 958.93 -30ZM955.99 -22.9599C955.99 -21.3378 956.137 -20.068 956.43 -19.1506L960.87 -27.9857C960.403 -28.6106 959.756 -28.923 958.93 -28.923C958.01 -28.923 957.29 -28.4311 956.77 -27.4472C956.25 -26.4766 955.99 -24.9808 955.99 -22.9599ZM958.93 -16.9967C959.863 -16.9967 960.59 -17.482 961.11 -18.4526C961.63 -19.4365 961.89 -20.9389 961.89 -22.9599C961.89 -24.675 961.723 -26.0046 961.39 -26.9486L956.95 -18.0338C957.43 -17.3424 958.09 -16.9967 958.93 -16.9967Z" fill="url(#paint47_linear_122_130)"/>
<path d="M960.13 5.63655H963.07V6.69356H955.45V5.63655H958.85V-5.57181L955.61 -3.63727L955.05 -4.53474L959.05 -7.00776H960.13V5.63655Z" fill="url(#paint48_linear_122_130)"/>
<path d="M958.93 15.5856C960.356 15.5856 961.436 16.1906 962.17 17.4005C962.916 18.5971 963.29 20.3389 963.29 22.6257C963.29 24.9126 962.916 26.661 962.17 27.8709C961.436 29.0808 960.356 29.6858 958.93 29.6858C957.517 29.6858 956.437 29.0808 955.69 27.8709C954.943 26.661 954.57 24.9126 954.57 22.6257C954.57 20.3522 954.943 18.6104 955.69 17.4005C956.437 16.1906 957.517 15.5856 958.93 15.5856ZM955.99 22.6257C955.99 24.2478 956.137 25.5176 956.43 26.435L960.87 17.5999C960.403 16.975 959.756 16.6626 958.93 16.6626C958.01 16.6626 957.29 17.1545 956.77 18.1384C956.25 19.109 955.99 20.6048 955.99 22.6257ZM958.93 28.5889C959.863 28.5889 960.59 28.1036 961.11 27.133C961.63 26.1491 961.89 24.6467 961.89 22.6257C961.89 20.9106 961.723 19.581 961.39 18.637L956.95 27.5518C957.43 28.2432 958.09 28.5889 958.93 28.5889Z" fill="url(#paint49_linear_122_130)"/>
<path d="M960.13 51.2221H963.07V52.2792H955.45V51.2221H958.85V40.0138L955.61 41.9483L955.05 41.0509L959.05 38.5778H960.13V51.2221Z" fill="url(#paint50_linear_122_130)"/>
<path d="M960.13 74.015H963.07V75.072H955.45V74.015H958.85V62.8066L955.61 64.7411L955.05 63.8437L959.05 61.3706H960.13V74.015Z" fill="url(#paint51_linear_122_130)"/>
<path d="M958.93 83.964C960.356 83.964 961.436 84.569 962.17 85.7789C962.916 86.9755 963.29 88.7173 963.29 91.0041C963.29 93.291 962.916 95.0394 962.17 96.2493C961.436 97.4593 960.356 98.0642 958.93 98.0642C957.517 98.0642 956.437 97.4593 955.69 96.2493C954.943 95.0394 954.57 93.291 954.57 91.0041C954.57 88.7306 954.943 86.9888 955.69 85.7789C956.437 84.569 957.517 83.964 958.93 83.964ZM955.99 91.0041C955.99 92.6262 956.137 93.896 956.43 94.8134L960.87 85.9783C960.403 85.3534 959.756 85.041 958.93 85.041C958.01 85.041 957.29 85.5329 956.77 86.5168C956.25 87.4874 955.99 88.9832 955.99 91.0041ZM958.93 96.9673C959.863 96.9673 960.59 96.482 961.11 95.5114C961.63 94.5275 961.89 93.0251 961.89 91.0041C961.89 89.289 961.723 87.9594 961.39 87.0154L956.95 95.9302C957.43 96.6216 958.09 96.9673 958.93 96.9673Z" fill="url(#paint52_linear_122_130)"/>
<path d="M960.13 119.601H963.07V120.658H955.45V119.601H958.85V108.392L955.61 110.327L955.05 109.429L959.05 106.956H960.13V119.601Z" fill="url(#paint53_linear_122_130)"/>
<path d="M958.93 129.55C960.356 129.55 961.436 130.155 962.17 131.365C962.916 132.561 963.29 134.303 963.29 136.59C963.29 138.877 962.916 140.625 962.17 141.835C961.436 143.045 960.356 143.65 958.93 143.65C957.517 143.65 956.437 143.045 955.69 141.835C954.943 140.625 954.57 138.877 954.57 136.59C954.57 134.316 954.943 132.574 955.69 131.365C956.437 130.155 957.517 129.55 958.93 129.55ZM955.99 136.59C955.99 138.212 956.137 139.482 956.43 140.399L960.87 131.564C960.403 130.939 959.756 130.627 958.93 130.627C958.01 130.627 957.29 131.119 956.77 132.102C956.25 133.073 955.99 134.569 955.99 136.59ZM958.93 142.553C959.863 142.553 960.59 142.068 961.11 141.097C961.63 140.113 961.89 138.611 961.89 136.59C961.89 134.875 961.723 133.545 961.39 132.601L956.95 141.516C957.43 142.207 958.09 142.553 958.93 142.553Z" fill="url(#paint54_linear_122_130)"/>
<path d="M958.93 152.342C960.356 152.342 961.436 152.947 962.17 154.157C962.916 155.354 963.29 157.096 963.29 159.383C963.29 161.669 962.916 163.418 962.17 164.628C961.436 165.838 960.356 166.443 958.93 166.443C957.517 166.443 956.437 165.838 955.69 164.628C954.943 163.418 954.57 161.669 954.57 159.383C954.57 157.109 954.943 155.367 955.69 154.157C956.437 152.947 957.517 152.342 958.93 152.342ZM955.99 159.383C955.99 161.005 956.137 162.274 956.43 163.192L960.87 154.357C960.403 153.732 959.756 153.419 958.93 153.419C958.01 153.419 957.29 153.911 956.77 154.895C956.25 155.866 955.99 157.362 955.99 159.383ZM958.93 165.346C959.863 165.346 960.59 164.86 961.11 163.89C961.63 162.906 961.89 161.404 961.89 159.383C961.89 157.667 961.723 156.338 961.39 155.394L956.95 164.309C957.43 165 958.09 165.346 958.93 165.346Z" fill="url(#paint55_linear_122_130)"/>
<path d="M960.13 187.979H963.07V189.036H955.45V187.979H958.85V176.771L955.61 178.705L955.05 177.808L959.05 175.335H960.13V187.979Z" fill="url(#paint56_linear_122_130)"/>
<path d="M958.93 197.928C960.356 197.928 961.436 198.533 962.17 199.743C962.916 200.94 963.29 202.681 963.29 204.968C963.29 207.255 962.916 209.003 962.17 210.213C961.436 211.423 960.356 212.028 958.93 212.028C957.517 212.028 956.437 211.423 955.69 210.213C954.943 209.003 954.57 207.255 954.57 204.968C954.57 202.695 954.943 200.953 955.69 199.743C956.437 198.533 957.517 197.928 958.93 197.928ZM955.99 204.968C955.99 206.59 956.137 207.86 956.43 208.777L960.87 199.942C960.403 199.317 959.756 199.005 958.93 199.005C958.01 199.005 957.29 199.497 956.77 200.481C956.25 201.451 955.99 202.947 955.99 204.968ZM958.93 210.931C959.863 210.931 960.59 210.446 961.11 209.475C961.63 208.492 961.89 206.989 961.89 204.968C961.89 203.253 961.723 201.923 961.39 200.979L956.95 209.894C957.43 210.586 958.09 210.931 958.93 210.931Z" fill="url(#paint57_linear_122_130)"/>
<path d="M960.13 233.565H963.07V234.622H955.45V233.565H958.85V222.356L955.61 224.291L955.05 223.393L959.05 220.92H960.13V233.565Z" fill="url(#paint58_linear_122_130)"/>
<path d="M960.13 256.357H963.07V257.414H955.45V256.357H958.85V245.149L955.61 247.084L955.05 246.186L959.05 243.713H960.13V256.357Z" fill="url(#paint59_linear_122_130)"/>
<path d="M996.07 15.5856C997.497 15.5856 998.577 16.1906 999.31 17.4005C1000.06 18.5971 1000.43 20.3389 1000.43 22.6257C1000.43 24.9126 1000.06 26.661 999.31 27.8709C998.577 29.0808 997.497 29.6858 996.07 29.6858C994.657 29.6858 993.577 29.0808 992.83 27.8709C992.084 26.661 991.71 24.9126 991.71 22.6257C991.71 20.3522 992.084 18.6104 992.83 17.4005C993.577 16.1906 994.657 15.5856 996.07 15.5856ZM993.13 22.6257C993.13 24.2478 993.277 25.5176 993.57 26.435L998.01 17.5999C997.543 16.975 996.897 16.6626 996.07 16.6626C995.15 16.6626 994.43 17.1545 993.91 18.1384C993.39 19.109 993.13 20.6048 993.13 22.6257ZM996.07 28.5889C997.003 28.5889 997.73 28.1036 998.25 27.133C998.77 26.1491 999.03 24.6467 999.03 22.6257C999.03 20.9106 998.863 19.581 998.53 18.637L994.09 27.5518C994.57 28.2432 995.23 28.5889 996.07 28.5889Z" fill="url(#paint60_linear_122_130)"/>
<path d="M997.27 51.2221H1000.21V52.2792H992.59V51.2221H995.99V40.0138L992.75 41.9483L992.19 41.0509L996.19 38.5778H997.27V51.2221Z" fill="url(#paint61_linear_122_130)"/>
<path d="M996.07 61.1712C997.497 61.1712 998.577 61.7762 999.31 62.9861C1000.06 64.1827 1000.43 65.9245 1000.43 68.2113C1000.43 70.4982 1000.06 72.2466 999.31 73.4565C998.577 74.6664 997.497 75.2714 996.07 75.2714C994.657 75.2714 993.577 74.6664 992.83 73.4565C992.084 72.2466 991.71 70.4982 991.71 68.2113C991.71 65.9378 992.084 64.196 992.83 62.9861C993.577 61.7762 994.657 61.1712 996.07 61.1712ZM993.13 68.2113C993.13 69.8334 993.277 71.1032 993.57 72.0206L998.01 63.1855C997.543 62.5606 996.897 62.2482 996.07 62.2482C995.15 62.2482 994.43 62.7401 993.91 63.724C993.39 64.6946 993.13 66.1904 993.13 68.2113ZM996.07 74.1745C997.003 74.1745 997.73 73.6892 998.25 72.7186C998.77 71.7347 999.03 70.2323 999.03 68.2113C999.03 66.4962 998.863 65.1666 998.53 64.2226L994.09 73.1374C994.57 73.8288 995.23 74.1745 996.07 74.1745Z" fill="url(#paint62_linear_122_130)"/>
<path d="M996.07 83.964C997.497 83.964 998.577 84.569 999.31 85.7789C1000.06 86.9755 1000.43 88.7173 1000.43 91.0041C1000.43 93.291 1000.06 95.0394 999.31 96.2493C998.577 97.4593 997.497 98.0642 996.07 98.0642C994.657 98.0642 993.577 97.4593 992.83 96.2493C992.084 95.0394 991.71 93.291 991.71 91.0041C991.71 88.7306 992.084 86.9888 992.83 85.7789C993.577 84.569 994.657 83.964 996.07 83.964ZM993.13 91.0041C993.13 92.6262 993.277 93.896 993.57 94.8134L998.01 85.9783C997.543 85.3534 996.897 85.041 996.07 85.041C995.15 85.041 994.43 85.5329 993.91 86.5168C993.39 87.4874 993.13 88.9832 993.13 91.0041ZM996.07 96.9673C997.003 96.9673 997.73 96.482 998.25 95.5114C998.77 94.5275 999.03 93.0251 999.03 91.0041C999.03 89.289 998.863 87.9594 998.53 87.0154L994.09 95.9302C994.57 96.6216 995.23 96.9673 996.07 96.9673Z" fill="url(#paint63_linear_122_130)"/>
<path d="M997.27 119.601H1000.21V120.658H992.59V119.601H995.99V108.392L992.75 110.327L992.19 109.429L996.19 106.956H997.27V119.601Z" fill="url(#paint64_linear_122_130)"/>
<path d="M996.07 129.55C997.497 129.55 998.577 130.155 999.31 131.365C1000.06 132.561 1000.43 134.303 1000.43 136.59C1000.43 138.877 1000.06 140.625 999.31 141.835C998.577 143.045 997.497 143.65 996.07 143.65C994.657 143.65 993.577 143.045 992.83 141.835C992.084 140.625 991.71 138.877 991.71 136.59C991.71 134.316 992.084 132.574 992.83 131.365C993.577 130.155 994.657 129.55 996.07 129.55ZM993.13 136.59C993.13 138.212 993.277 139.482 993.57 140.399L998.01 131.564C997.543 130.939 996.897 130.627 996.07 130.627C995.15 130.627 994.43 131.119 993.91 132.102C993.39 133.073 993.13 134.569 993.13 136.59ZM996.07 142.553C997.003 142.553 997.73 142.068 998.25 141.097C998.77 140.113 999.03 138.611 999.03 136.59C999.03 134.875 998.863 133.545 998.53 132.601L994.09 141.516C994.57 142.207 995.23 142.553 996.07 142.553Z" fill="url(#paint65_linear_122_130)"/>
<path d="M997.27 165.186H1000.21V166.243H992.59V165.186H995.99V153.978L992.75 155.912L992.19 155.015L996.19 152.542H997.27V165.186Z" fill="url(#paint66_linear_122_130)"/>
<path d="M996.07 175.135C997.497 175.135 998.577 175.74 999.31 176.95C1000.06 178.147 1000.43 179.888 1000.43 182.175C1000.43 184.462 1000.06 186.211 999.31 187.421C998.577 188.63 997.497 189.235 996.07 189.235C994.657 189.235 993.577 188.63 992.83 187.421C992.084 186.211 991.71 184.462 991.71 182.175C991.71 179.902 992.084 178.16 992.83 176.95C993.577 175.74 994.657 175.135 996.07 175.135ZM993.13 182.175C993.13 183.797 993.277 185.067 993.57 185.985L998.01 177.15C997.543 176.525 996.897 176.212 996.07 176.212C995.15 176.212 994.43 176.704 993.91 177.688C993.39 178.659 993.13 180.154 993.13 182.175ZM996.07 188.139C997.003 188.139 997.73 187.653 998.25 186.683C998.77 185.699 999.03 184.196 999.03 182.175C999.03 180.46 998.863 179.131 998.53 178.187L994.09 187.101C994.57 187.793 995.23 188.139 996.07 188.139Z" fill="url(#paint67_linear_122_130)"/>
<path d="M996.07 197.928C997.497 197.928 998.577 198.533 999.31 199.743C1000.06 200.94 1000.43 202.681 1000.43 204.968C1000.43 207.255 1000.06 209.003 999.31 210.213C998.577 211.423 997.497 212.028 996.07 212.028C994.657 212.028 993.577 211.423 992.83 210.213C992.084 209.003 991.71 207.255 991.71 204.968C991.71 202.695 992.084 200.953 992.83 199.743C993.577 198.533 994.657 197.928 996.07 197.928ZM993.13 204.968C993.13 206.59 993.277 207.86 993.57 208.777L998.01 199.942C997.543 199.317 996.897 199.005 996.07 199.005C995.15 199.005 994.43 199.497 993.91 200.481C993.39 201.451 993.13 202.947 993.13 204.968ZM996.07 210.931C997.003 210.931 997.73 210.446 998.25 209.475C998.77 208.492 999.03 206.989 999.03 204.968C999.03 203.253 998.863 201.923 998.53 200.979L994.09 209.894C994.57 210.586 995.23 210.931 996.07 210.931Z" fill="url(#paint68_linear_122_130)"/>
<path d="M997.27 233.565H1000.21V234.622H992.59V233.565H995.99V222.356L992.75 224.291L992.19 223.393L996.19 220.92H997.27V233.565Z" fill="url(#paint69_linear_122_130)"/>
<path d="M996.07 243.514C997.497 243.514 998.577 244.119 999.31 245.329C1000.06 246.525 1000.43 248.267 1000.43 250.554C1000.43 252.841 1000.06 254.589 999.31 255.799C998.577 257.009 997.497 257.614 996.07 257.614C994.657 257.614 993.577 257.009 992.83 255.799C992.084 254.589 991.71 252.841 991.71 250.554C991.71 248.28 992.084 246.538 992.83 245.329C993.577 244.119 994.657 243.514 996.07 243.514ZM993.13 250.554C993.13 252.176 993.277 253.446 993.57 254.363L998.01 245.528C997.543 244.903 996.897 244.591 996.07 244.591C995.15 244.591 994.43 245.083 993.91 246.066C993.39 247.037 993.13 248.533 993.13 250.554ZM996.07 256.517C997.003 256.517 997.73 256.032 998.25 255.061C998.77 254.077 999.03 252.575 999.03 250.554C999.03 248.839 998.863 247.509 998.53 246.565L994.09 255.48C994.57 256.171 995.23 256.517 996.07 256.517Z" fill="url(#paint70_linear_122_130)"/>
<path d="M997.27 279.15H1000.21V280.207H992.59V279.15H995.99V267.942L992.75 269.876L992.19 268.979L996.19 266.506H997.27V279.15Z" fill="url(#paint71_linear_122_130)"/>
<path d="M997.27 301.943H1000.21V303H992.59V301.943H995.99V290.735L992.75 292.669L992.19 291.772L996.19 289.299H997.27V301.943Z" fill="url(#paint72_linear_122_130)"/>
<path d="M940.36 38.3784C941.786 38.3784 942.866 38.9834 943.599 40.1933C944.346 41.3899 944.719 43.1317 944.719 45.4185C944.719 47.7054 944.346 49.4538 943.599 50.6637C942.866 51.8736 941.786 52.4786 940.36 52.4786C938.946 52.4786 937.867 51.8736 937.12 50.6637C936.373 49.4538 936 47.7054 936 45.4185C936 43.145 936.373 41.4032 937.12 40.1933C937.867 38.9834 938.946 38.3784 940.36 38.3784ZM937.42 45.4185C937.42 47.0406 937.567 48.3104 937.86 49.2278L942.3 40.3927C941.833 39.7678 941.186 39.4554 940.36 39.4554C939.44 39.4554 938.72 39.9473 938.2 40.9312C937.68 41.9018 937.42 43.3976 937.42 45.4185ZM940.36 51.3817C941.293 51.3817 942.02 50.8964 942.54 49.9258C943.06 48.9419 943.319 47.4395 943.319 45.4185C943.319 43.7034 943.153 42.3738 942.82 41.4298L938.38 50.3446C938.86 51.036 939.52 51.3817 940.36 51.3817Z" fill="url(#paint73_linear_122_130)"/>
<path d="M940.36 61.1712C941.786 61.1712 942.866 61.7762 943.599 62.9861C944.346 64.1827 944.719 65.9245 944.719 68.2113C944.719 70.4982 944.346 72.2466 943.599 73.4565C942.866 74.6664 941.786 75.2714 940.36 75.2714C938.946 75.2714 937.867 74.6664 937.12 73.4565C936.373 72.2466 936 70.4982 936 68.2113C936 65.9378 936.373 64.196 937.12 62.9861C937.867 61.7762 938.946 61.1712 940.36 61.1712ZM937.42 68.2113C937.42 69.8334 937.567 71.1032 937.86 72.0206L942.3 63.1855C941.833 62.5606 941.186 62.2482 940.36 62.2482C939.44 62.2482 938.72 62.7401 938.2 63.724C937.68 64.6946 937.42 66.1904 937.42 68.2113ZM940.36 74.1745C941.293 74.1745 942.02 73.6892 942.54 72.7186C943.06 71.7347 943.319 70.2323 943.319 68.2113C943.319 66.4962 943.153 65.1666 942.82 64.2226L938.38 73.1374C938.86 73.8288 939.52 74.1745 940.36 74.1745Z" fill="url(#paint74_linear_122_130)"/>
<path d="M941.56 96.8078H944.499V97.8648H936.88V96.8078H940.28V85.5994L937.04 87.5339L936.48 86.6365L940.48 84.1635H941.56V96.8078Z" fill="url(#paint75_linear_122_130)"/>
<path d="M940.36 106.757C941.786 106.757 942.866 107.362 943.599 108.572C944.346 109.768 944.719 111.51 944.719 113.797C944.719 116.084 944.346 117.832 943.599 119.042C942.866 120.252 941.786 120.857 940.36 120.857C938.946 120.857 937.867 120.252 937.12 119.042C936.373 117.832 936 116.084 936 113.797C936 111.523 936.373 109.782 937.12 108.572C937.867 107.362 938.946 106.757 940.36 106.757ZM937.42 113.797C937.42 115.419 937.567 116.689 937.86 117.606L942.3 108.771C941.833 108.146 941.186 107.834 940.36 107.834C939.44 107.834 938.72 108.326 938.2 109.31C937.68 110.28 937.42 111.776 937.42 113.797ZM940.36 119.76C941.293 119.76 942.02 119.275 942.54 118.304C943.06 117.32 943.319 115.818 943.319 113.797C943.319 112.082 943.153 110.752 942.82 109.808L938.38 118.723C938.86 119.414 939.52 119.76 940.36 119.76Z" fill="url(#paint76_linear_122_130)"/>
<path d="M941.56 142.393H944.499V143.45H936.88V142.393H940.28V131.185L937.04 133.12L936.48 132.222L940.48 129.749H941.56V142.393Z" fill="url(#paint77_linear_122_130)"/>
<path d="M941.56 165.186H944.499V166.243H936.88V165.186H940.28V153.978L937.04 155.912L936.48 155.015L940.48 152.542H941.56V165.186Z" fill="url(#paint78_linear_122_130)"/>
<path d="M978.7 5.63655H981.64V6.69356H974.02V5.63655H977.42V-5.57181L974.18 -3.63727L973.62 -4.53474L977.62 -7.00776H978.7V5.63655Z" fill="url(#paint79_linear_122_130)"/>
<path d="M977.5 15.5856C978.927 15.5856 980.006 16.1906 980.74 17.4005C981.486 18.5971 981.86 20.3389 981.86 22.6257C981.86 24.9126 981.486 26.661 980.74 27.8709C980.006 29.0808 978.927 29.6858 977.5 29.6858C976.087 29.6858 975.007 29.0808 974.26 27.8709C973.514 26.661 973.14 24.9126 973.14 22.6257C973.14 20.3522 973.514 18.6104 974.26 17.4005C975.007 16.1906 976.087 15.5856 977.5 15.5856ZM974.56 22.6257C974.56 24.2478 974.707 25.5176 975 26.435L979.44 17.5999C978.973 16.975 978.327 16.6626 977.5 16.6626C976.58 16.6626 975.86 17.1545 975.34 18.1384C974.82 19.109 974.56 20.6048 974.56 22.6257ZM977.5 28.5889C978.433 28.5889 979.16 28.1036 979.68 27.133C980.2 26.1491 980.46 24.6467 980.46 22.6257C980.46 20.9106 980.293 19.581 979.96 18.637L975.52 27.5518C976 28.2432 976.66 28.5889 977.5 28.5889Z" fill="url(#paint80_linear_122_130)"/>
<path d="M978.7 51.2221H981.64V52.2792H974.02V51.2221H977.42V40.0138L974.18 41.9483L973.62 41.0509L977.62 38.5778H978.7V51.2221Z" fill="url(#paint81_linear_122_130)"/>
<path d="M978.7 74.015H981.64V75.072H974.02V74.015H977.42V62.8066L974.18 64.7411L973.62 63.8437L977.62 61.3706H978.7V74.015Z" fill="url(#paint82_linear_122_130)"/>
<path d="M977.5 83.964C978.927 83.964 980.006 84.569 980.74 85.7789C981.486 86.9755 981.86 88.7173 981.86 91.0041C981.86 93.291 981.486 95.0394 980.74 96.2493C980.006 97.4593 978.927 98.0642 977.5 98.0642C976.087 98.0642 975.007 97.4593 974.26 96.2493C973.514 95.0394 973.14 93.291 973.14 91.0041C973.14 88.7306 973.514 86.9888 974.26 85.7789C975.007 84.569 976.087 83.964 977.5 83.964ZM974.56 91.0041C974.56 92.6262 974.707 93.896 975 94.8134L979.44 85.9783C978.973 85.3534 978.327 85.041 977.5 85.041C976.58 85.041 975.86 85.5329 975.34 86.5168C974.82 87.4874 974.56 88.9832 974.56 91.0041ZM977.5 96.9673C978.433 96.9673 979.16 96.482 979.68 95.5114C980.2 94.5275 980.46 93.0251 980.46 91.0041C980.46 89.289 980.293 87.9594 979.96 87.0154L975.52 95.9302C976 96.6216 976.66 96.9673 977.5 96.9673Z" fill="url(#paint83_linear_122_130)"/>
<path d="M978.7 119.601H981.64V120.658H974.02V119.601H977.42V108.392L974.18 110.327L973.62 109.429L977.62 106.956H978.7V119.601Z" fill="url(#paint84_linear_122_130)"/>
<path d="M978.7 142.393H981.64V143.45H974.02V142.393H977.42V131.185L974.18 133.12L973.62 132.222L977.62 129.749H978.7V142.393Z" fill="url(#paint85_linear_122_130)"/>
<path d="M977.5 152.342C978.927 152.342 980.006 152.947 980.74 154.157C981.486 155.354 981.86 157.096 981.86 159.383C981.86 161.669 981.486 163.418 980.74 164.628C980.006 165.838 978.927 166.443 977.5 166.443C976.087 166.443 975.007 165.838 974.26 164.628C973.514 163.418 973.14 161.669 973.14 159.383C973.14 157.109 973.514 155.367 974.26 154.157C975.007 152.947 976.087 152.342 977.5 152.342ZM974.56 159.383C974.56 161.005 974.707 162.274 975 163.192L979.44 154.357C978.973 153.732 978.327 153.419 977.5 153.419C976.58 153.419 975.86 153.911 975.34 154.895C974.82 155.866 974.56 157.362 974.56 159.383ZM977.5 165.346C978.433 165.346 979.16 164.86 979.68 163.89C980.2 162.906 980.46 161.404 980.46 159.383C980.46 157.667 980.293 156.338 979.96 155.394L975.52 164.309C976 165 976.66 165.346 977.5 165.346Z" fill="url(#paint86_linear_122_130)"/>
<path d="M978.7 187.979H981.64V189.036H974.02V187.979H977.42V176.771L974.18 178.705L973.62 177.808L977.62 175.335H978.7V187.979Z" fill="url(#paint87_linear_122_130)"/>
<path d="M977.5 197.928C978.927 197.928 980.006 198.533 980.74 199.743C981.486 200.94 981.86 202.681 981.86 204.968C981.86 207.255 981.486 209.003 980.74 210.213C980.006 211.423 978.927 212.028 977.5 212.028C976.087 212.028 975.007 211.423 974.26 210.213C973.514 209.003 973.14 207.255 973.14 204.968C973.14 202.695 973.514 200.953 974.26 199.743C975.007 198.533 976.087 197.928 977.5 197.928ZM974.56 204.968C974.56 206.59 974.707 207.86 975 208.777L979.44 199.942C978.973 199.317 978.327 199.005 977.5 199.005C976.58 199.005 975.86 199.497 975.34 200.481C974.82 201.451 974.56 202.947 974.56 204.968ZM977.5 210.931C978.433 210.931 979.16 210.446 979.68 209.475C980.2 208.492 980.46 206.989 980.46 204.968C980.46 203.253 980.293 201.923 979.96 200.979L975.52 209.894C976 210.586 976.66 210.931 977.5 210.931Z" fill="url(#paint88_linear_122_130)"/>
<path d="M1014.64 -7.2072C1016.07 -7.2072 1017.15 -6.60224 1017.88 -5.39232C1018.63 -4.1957 1019 -2.45395 1019 -0.167072C1019 2.11981 1018.63 3.86821 1017.88 5.07812C1017.15 6.28804 1016.07 6.893 1014.64 6.893C1013.23 6.893 1012.15 6.28804 1011.4 5.07812C1010.65 3.86821 1010.28 2.11981 1010.28 -0.167072C1010.28 -2.44065 1010.65 -4.1824 1011.4 -5.39232C1012.15 -6.60224 1013.23 -7.2072 1014.64 -7.2072ZM1011.7 -0.167072C1011.7 1.45502 1011.85 2.72477 1012.14 3.64218L1016.58 -5.19288C1016.11 -5.81779 1015.47 -6.13024 1014.64 -6.13024C1013.72 -6.13024 1013 -5.63829 1012.48 -4.6544C1011.96 -3.68381 1011.7 -2.18803 1011.7 -0.167072ZM1014.64 5.7961C1015.57 5.7961 1016.3 5.3108 1016.82 4.34021C1017.34 3.35632 1017.6 1.85389 1017.6 -0.167072C1017.6 -1.88223 1017.43 -3.21181 1017.1 -4.15581L1012.66 4.75902C1013.14 5.4504 1013.8 5.7961 1014.64 5.7961Z" fill="url(#paint89_linear_122_130)"/>
<path d="M1015.84 28.4293H1018.78V29.4864H1011.16V28.4293H1014.56V17.221L1011.32 19.1555L1010.76 18.2581L1014.76 15.785H1015.84V28.4293Z" fill="url(#paint90_linear_122_130)"/>
<path d="M1015.84 51.2221H1018.78V52.2792H1011.16V51.2221H1014.56V40.0138L1011.32 41.9483L1010.76 41.0509L1014.76 38.5778H1015.84V51.2221Z" fill="url(#paint91_linear_122_130)"/>
<path d="M1014.64 61.1712C1016.07 61.1712 1017.15 61.7762 1017.88 62.9861C1018.63 64.1827 1019 65.9245 1019 68.2113C1019 70.4982 1018.63 72.2466 1017.88 73.4565C1017.15 74.6664 1016.07 75.2714 1014.64 75.2714C1013.23 75.2714 1012.15 74.6664 1011.4 73.4565C1010.65 72.2466 1010.28 70.4982 1010.28 68.2113C1010.28 65.9378 1010.65 64.196 1011.4 62.9861C1012.15 61.7762 1013.23 61.1712 1014.64 61.1712ZM1011.7 68.2113C1011.7 69.8334 1011.85 71.1032 1012.14 72.0206L1016.58 63.1855C1016.11 62.5606 1015.47 62.2482 1014.64 62.2482C1013.72 62.2482 1013 62.7401 1012.48 63.724C1011.96 64.6946 1011.7 66.1904 1011.7 68.2113ZM1014.64 74.1745C1015.57 74.1745 1016.3 73.6892 1016.82 72.7186C1017.34 71.7347 1017.6 70.2323 1017.6 68.2113C1017.6 66.4962 1017.43 65.1666 1017.1 64.2226L1012.66 73.1374C1013.14 73.8288 1013.8 74.1745 1014.64 74.1745Z" fill="url(#paint92_linear_122_130)"/>
<path d="M1014.64 83.964C1016.07 83.964 1017.15 84.569 1017.88 85.7789C1018.63 86.9755 1019 88.7173 1019 91.0041C1019 93.291 1018.63 95.0394 1017.88 96.2493C1017.15 97.4593 1016.07 98.0642 1014.64 98.0642C1013.23 98.0642 1012.15 97.4593 1011.4 96.2493C1010.65 95.0394 1010.28 93.291 1010.28 91.0041C1010.28 88.7306 1010.65 86.9888 1011.4 85.7789C1012.15 84.569 1013.23 83.964 1014.64 83.964ZM1011.7 91.0041C1011.7 92.6262 1011.85 93.896 1012.14 94.8134L1016.58 85.9783C1016.11 85.3534 1015.47 85.041 1014.64 85.041C1013.72 85.041 1013 85.5329 1012.48 86.5168C1011.96 87.4874 1011.7 88.9832 1011.7 91.0041ZM1014.64 96.9673C1015.57 96.9673 1016.3 96.482 1016.82 95.5114C1017.34 94.5275 1017.6 93.0251 1017.6 91.0041C1017.6 89.289 1017.43 87.9594 1017.1 87.0154L1012.66 95.9302C1013.14 96.6216 1013.8 96.9673 1014.64 96.9673Z" fill="url(#paint93_linear_122_130)"/>
</g>
</g>
<defs>
<filter id="filter0_f_122_130" x="-519.19" y="-716.19" width="2141.38" height="1500.38" filterUnits="userSpaceOnUse" color-interpolation-filters="sRGB">
<feFlood flood-opacity="0" result="BackgroundImageFix"/>
<feBlend mode="normal" in="SourceGraphic" in2="BackgroundImageFix" result="shape"/>
<feGaussianBlur stdDeviation="200.095" result="effect1_foregroundBlur_122_130"/>
</filter>
<linearGradient id="paint0_linear_122_130" x1="91.5" y1="270" x2="91.5" y2="581.381" gradientUnits="userSpaceOnUse">
<stop stop-color="#F7DD43"/>
<stop offset="1" stop-color="#F7DD43" stop-opacity="0"/>
</linearGradient>
<linearGradient id="paint1_linear_122_130" x1="91.5" y1="270" x2="91.5" y2="581.381" gradientUnits="userSpaceOnUse">
<stop stop-color="#F7DD43"/>
<stop offset="1" stop-color="#F7DD43" stop-opacity="0"/>
</linearGradient>
<linearGradient id="paint2_linear_122_130" x1="91.5" y1="270" x2="91.5" y2="581.381" gradientUnits="userSpaceOnUse">
<stop stop-color="#F7DD43"/>
<stop offset="1" stop-color="#F7DD43" stop-opacity="0"/>
</linearGradient>
<linearGradient id="paint3_linear_122_130" x1="91.5" y1="270" x2="91.5" y2="581.381" gradientUnits="userSpaceOnUse">
<stop stop-color="#F7DD43"/>
<stop offset="1" stop-color="#F7DD43" stop-opacity="0"/>
</linearGradient>
<linearGradient id="paint4_linear_122_130" x1="91.5" y1="270" x2="91.5" y2="581.381" gradientUnits="userSpaceOnUse">
<stop stop-color="#F7DD43"/>
<stop offset="1" stop-color="#F7DD43" stop-opacity="0"/>
</linearGradient>
<linearGradient id="paint5_linear_122_130" x1="91.5" y1="270" x2="91.5" y2="581.381" gradientUnits="userSpaceOnUse">
<stop stop-color="#F7DD43"/>
<stop offset="1" stop-color="#F7DD43" stop-opacity="0"/>
</linearGradient>
<linearGradient id="paint6_linear_122_130" x1="91.5" y1="270" x2="91.5" y2="581.381" gradientUnits="userSpaceOnUse">
<stop stop-color="#F7DD43"/>
<stop offset="1" stop-color="#F7DD43" stop-opacity="0"/>
</linearGradient>
<linearGradient id="paint7_linear_122_130" x1="91.5" y1="270" x2="91.5" y2="581.381" gradientUnits="userSpaceOnUse">
<stop stop-color="#F7DD43"/>
<stop offset="1" stop-color="#F7DD43" stop-opacity="0"/>
</linearGradient>
<linearGradient id="paint8_linear_122_130" x1="91.5" y1="270" x2="91.5" y2="581.381" gradientUnits="userSpaceOnUse">
<stop stop-color="#F7DD43"/>
<stop offset="1" stop-color="#F7DD43" stop-opacity="0"/>
</linearGradient>
<linearGradient id="paint9_linear_122_130" x1="91.5" y1="270" x2="91.5" y2="581.381" gradientUnits="userSpaceOnUse">
<stop stop-color="#F7DD43"/>
<stop offset="1" stop-color="#F7DD43" stop-opacity="0"/>
</linearGradient>
<linearGradient id="paint10_linear_122_130" x1="91.5" y1="270" x2="91.5" y2="581.381" gradientUnits="userSpaceOnUse">
<stop stop-color="#F7DD43"/>
<stop offset="1" stop-color="#F7DD43" stop-opacity="0"/>
</linearGradient>
<linearGradient id="paint11_linear_122_130" x1="91.5" y1="270" x2="91.5" y2="581.381" gradientUnits="userSpaceOnUse">
<stop stop-color="#F7DD43"/>
<stop offset="1" stop-color="#F7DD43" stop-opacity="0"/>
</linearGradient>
<linearGradient id="paint12_linear_122_130" x1="91.5" y1="270" x2="91.5" y2="581.381" gradientUnits="userSpaceOnUse">
<stop stop-color="#F7DD43"/>
<stop offset="1" stop-color="#F7DD43" stop-opacity="0"/>
</linearGradient>
<linearGradient id="paint13_linear_122_130" x1="91.5" y1="270" x2="91.5" y2="581.381" gradientUnits="userSpaceOnUse">
<stop stop-color="#F7DD43"/>
<stop offset="1" stop-color="#F7DD43" stop-opacity="0"/>
</linearGradient>
<linearGradient id="paint14_linear_122_130" x1="91.5" y1="270" x2="91.5" y2="581.381" gradientUnits="userSpaceOnUse">
<stop stop-color="#F7DD43"/>
<stop offset="1" stop-color="#F7DD43" stop-opacity="0"/>
</linearGradient>
<linearGradient id="paint15_linear_122_130" x1="91.5" y1="270" x2="91.5" y2="581.381" gradientUnits="userSpaceOnUse">
<stop stop-color="#F7DD43"/>
<stop offset="1" stop-color="#F7DD43" stop-opacity="0"/>
</linearGradient>
<linearGradient id="paint16_linear_122_130" x1="91.5" y1="270" x2="91.5" y2="581.381" gradientUnits="userSpaceOnUse">
<stop stop-color="#F7DD43"/>
<stop offset="1" stop-color="#F7DD43" stop-opacity="0"/>
</linearGradient>
<linearGradient id="paint17_linear_122_130" x1="91.5" y1="270" x2="91.5" y2="581.381" gradientUnits="userSpaceOnUse">
<stop stop-color="#F7DD43"/>
<stop offset="1" stop-color="#F7DD43" stop-opacity="0"/>
</linearGradient>
<linearGradient id="paint18_linear_122_130" x1="91.5" y1="270" x2="91.5" y2="581.381" gradientUnits="userSpaceOnUse">
<stop stop-color="#F7DD43"/>
<stop offset="1" stop-color="#F7DD43" stop-opacity="0"/>
</linearGradient>
<linearGradient id="paint19_linear_122_130" x1="91.5" y1="270" x2="91.5" y2="581.381" gradientUnits="userSpaceOnUse">
<stop stop-color="#F7DD43"/>
<stop offset="1" stop-color="#F7DD43" stop-opacity="0"/>
</linearGradient>
<linearGradient id="paint20_linear_122_130" x1="91.5" y1="270" x2="91.5" y2="581.381" gradientUnits="userSpaceOnUse">
<stop stop-color="#F7DD43"/>
<stop offset="1" stop-color="#F7DD43" stop-opacity="0"/>
</linearGradient>
<linearGradient id="paint21_linear_122_130" x1="91.5" y1="270" x2="91.5" y2="581.381" gradientUnits="userSpaceOnUse">
<stop stop-color="#F7DD43"/>
<stop offset="1" stop-color="#F7DD43" stop-opacity="0"/>
</linearGradient>
<linearGradient id="paint22_linear_122_130" x1="91.5" y1="270" x2="91.5" y2="581.381" gradientUnits="userSpaceOnUse">
<stop stop-color="#F7DD43"/>
<stop offset="1" stop-color="#F7DD43" stop-opacity="0"/>
</linearGradient>
<linearGradient id="paint23_linear_122_130" x1="91.5" y1="270" x2="91.5" y2="581.381" gradientUnits="userSpaceOnUse">
<stop stop-color="#F7DD43"/>
<stop offset="1" stop-color="#F7DD43" stop-opacity="0"/>
</linearGradient>
<linearGradient id="paint24_linear_122_130" x1="91.5" y1="270" x2="91.5" y2="581.381" gradientUnits="userSpaceOnUse">
<stop stop-color="#F7DD43"/>
<stop offset="1" stop-color="#F7DD43" stop-opacity="0"/>
</linearGradient>
<linearGradient id="paint25_linear_122_130" x1="91.5" y1="270" x2="91.5" y2="581.381" gradientUnits="userSpaceOnUse">
<stop stop-color="#F7DD43"/>
<stop offset="1" stop-color="#F7DD43" stop-opacity="0"/>
</linearGradient>
<linearGradient id="paint26_linear_122_130" x1="91.5" y1="270" x2="91.5" y2="581.381" gradientUnits="userSpaceOnUse">
<stop stop-color="#F7DD43"/>
<stop offset="1" stop-color="#F7DD43" stop-opacity="0"/>
</linearGradient>
<linearGradient id="paint27_linear_122_130" x1="91.5" y1="270" x2="91.5" y2="581.381" gradientUnits="userSpaceOnUse">
<stop stop-color="#F7DD43"/>
<stop offset="1" stop-color="#F7DD43" stop-opacity="0"/>
</linearGradient>
<linearGradient id="paint28_linear_122_130" x1="91.5" y1="270" x2="91.5" y2="581.381" gradientUnits="userSpaceOnUse">
<stop stop-color="#F7DD43"/>
<stop offset="1" stop-color="#F7DD43" stop-opacity="0"/>
</linearGradient>
<linearGradient id="paint29_linear_122_130" x1="91.5" y1="270" x2="91.5" y2="581.381" gradientUnits="userSpaceOnUse">
<stop stop-color="#F7DD43"/>
<stop offset="1" stop-color="#F7DD43" stop-opacity="0"/>
</linearGradient>
<linearGradient id="paint30_linear_122_130" x1="91.5" y1="270" x2="91.5" y2="581.381" gradientUnits="userSpaceOnUse">
<stop stop-color="#F7DD43"/>
<stop offset="1" stop-color="#F7DD43" stop-opacity="0"/>
</linearGradient>
<linearGradient id="paint31_linear_122_130" x1="91.5" y1="270" x2="91.5" y2="581.381" gradientUnits="userSpaceOnUse">
<stop stop-color="#F7DD43"/>
<stop offset="1" stop-color="#F7DD43" stop-opacity="0"/>
</linearGradient>
<linearGradient id="paint32_linear_122_130" x1="91.5" y1="270" x2="91.5" y2="581.381" gradientUnits="userSpaceOnUse">
<stop stop-color="#F7DD43"/>
<stop offset="1" stop-color="#F7DD43" stop-opacity="0"/>
</linearGradient>
<linearGradient id="paint33_linear_122_130" x1="91.5" y1="270" x2="91.5" y2="581.381" gradientUnits="userSpaceOnUse">
<stop stop-color="#F7DD43"/>
<stop offset="1" stop-color="#F7DD43" stop-opacity="0"/>
</linearGradient>
<linearGradient id="paint34_linear_122_130" x1="91.5" y1="270" x2="91.5" y2="581.381" gradientUnits="userSpaceOnUse">
<stop stop-color="#F7DD43"/>
<stop offset="1" stop-color="#F7DD43" stop-opacity="0"/>
</linearGradient>
<linearGradient id="paint35_linear_122_130" x1="91.5" y1="270" x2="91.5" y2="581.381" gradientUnits="userSpaceOnUse">
<stop stop-color="#F7DD43"/>
<stop offset="1" stop-color="#F7DD43" stop-opacity="0"/>
</linearGradient>
<linearGradient id="paint36_linear_122_130" x1="91.5" y1="270" x2="91.5" y2="581.381" gradientUnits="userSpaceOnUse">
<stop stop-color="#F7DD43"/>
<stop offset="1" stop-color="#F7DD43" stop-opacity="0"/>
</linearGradient>
<linearGradient id="paint37_linear_122_130" x1="91.5" y1="270" x2="91.5" y2="581.381" gradientUnits="userSpaceOnUse">
<stop stop-color="#F7DD43"/>
<stop offset="1" stop-color="#F7DD43" stop-opacity="0"/>
</linearGradient>
<linearGradient id="paint38_linear_122_130" x1="91.5" y1="270" x2="91.5" y2="581.381" gradientUnits="userSpaceOnUse">
<stop stop-color="#F7DD43"/>
<stop offset="1" stop-color="#F7DD43" stop-opacity="0"/>
</linearGradient>
<linearGradient id="paint39_linear_122_130" x1="91.5" y1="270" x2="91.5" y2="581.381" gradientUnits="userSpaceOnUse">
<stop stop-color="#F7DD43"/>
<stop offset="1" stop-color="#F7DD43" stop-opacity="0"/>
</linearGradient>
<linearGradient id="paint40_linear_122_130" x1="91.5" y1="270" x2="91.5" y2="581.381" gradientUnits="userSpaceOnUse">
<stop stop-color="#F7DD43"/>
<stop offset="1" stop-color="#F7DD43" stop-opacity="0"/>
</linearGradient>
<linearGradient id="paint41_linear_122_130" x1="91.5" y1="270" x2="91.5" y2="581.381" gradientUnits="userSpaceOnUse">
<stop stop-color="#F7DD43"/>
<stop offset="1" stop-color="#F7DD43" stop-opacity="0"/>
</linearGradient>
<linearGradient id="paint42_linear_122_130" x1="91.5" y1="270" x2="91.5" y2="581.381" gradientUnits="userSpaceOnUse">
<stop stop-color="#F7DD43"/>
<stop offset="1" stop-color="#F7DD43" stop-opacity="0"/>
</linearGradient>
<linearGradient id="paint43_linear_122_130" x1="91.5" y1="270" x2="91.5" y2="581.381" gradientUnits="userSpaceOnUse">
<stop stop-color="#F7DD43"/>
<stop offset="1" stop-color="#F7DD43" stop-opacity="0"/>
</linearGradient>
<linearGradient id="paint44_linear_122_130" x1="91.5" y1="270" x2="91.5" y2="581.381" gradientUnits="userSpaceOnUse">
<stop stop-color="#F7DD43"/>
<stop offset="1" stop-color="#F7DD43" stop-opacity="0"/>
</linearGradient>
<linearGradient id="paint45_linear_122_130" x1="91.5" y1="270" x2="91.5" y2="581.381" gradientUnits="userSpaceOnUse">
<stop stop-color="#F7DD43"/>
<stop offset="1" stop-color="#F7DD43" stop-opacity="0"/>
</linearGradient>
<linearGradient id="paint46_linear_122_130" x1="91.5" y1="270" x2="91.5" y2="581.381" gradientUnits="userSpaceOnUse">
<stop stop-color="#F7DD43"/>
<stop offset="1" stop-color="#F7DD43" stop-opacity="0"/>
</linearGradient>
<linearGradient id="paint47_linear_122_130" x1="977.5" y1="-30" x2="977.5" y2="268.818" gradientUnits="userSpaceOnUse">
<stop stop-color="#F7DD43"/>
<stop offset="1" stop-color="#F7DD43" stop-opacity="0"/>
</linearGradient>
<linearGradient id="paint48_linear_122_130" x1="977.5" y1="-30" x2="977.5" y2="268.818" gradientUnits="userSpaceOnUse">
<stop stop-color="#F7DD43"/>
<stop offset="1" stop-color="#F7DD43" stop-opacity="0"/>
</linearGradient>
<linearGradient id="paint49_linear_122_130" x1="977.5" y1="-30" x2="977.5" y2="268.818" gradientUnits="userSpaceOnUse">
<stop stop-color="#F7DD43"/>
<stop offset="1" stop-color="#F7DD43" stop-opacity="0"/>
</linearGradient>
<linearGradient id="paint50_linear_122_130" x1="977.5" y1="-30" x2="977.5" y2="268.818" gradientUnits="userSpaceOnUse">
<stop stop-color="#F7DD43"/>
<stop offset="1" stop-color="#F7DD43" stop-opacity="0"/>
</linearGradient>
<linearGradient id="paint51_linear_122_130" x1="977.5" y1="-30" x2="977.5" y2="268.818" gradientUnits="userSpaceOnUse">
<stop stop-color="#F7DD43"/>
<stop offset="1" stop-color="#F7DD43" stop-opacity="0"/>
</linearGradient>
<linearGradient id="paint52_linear_122_130" x1="977.5" y1="-30" x2="977.5" y2="268.818" gradientUnits="userSpaceOnUse">
<stop stop-color="#F7DD43"/>
<stop offset="1" stop-color="#F7DD43" stop-opacity="0"/>
</linearGradient>
<linearGradient id="paint53_linear_122_130" x1="977.5" y1="-30" x2="977.5" y2="268.818" gradientUnits="userSpaceOnUse">
<stop stop-color="#F7DD43"/>
<stop offset="1" stop-color="#F7DD43" stop-opacity="0"/>
</linearGradient>
<linearGradient id="paint54_linear_122_130" x1="977.5" y1="-30" x2="977.5" y2="268.818" gradientUnits="userSpaceOnUse">
<stop stop-color="#F7DD43"/>
<stop offset="1" stop-color="#F7DD43" stop-opacity="0"/>
</linearGradient>
<linearGradient id="paint55_linear_122_130" x1="977.5" y1="-30" x2="977.5" y2="268.818" gradientUnits="userSpaceOnUse">
<stop stop-color="#F7DD43"/>
<stop offset="1" stop-color="#F7DD43" stop-opacity="0"/>
</linearGradient>
<linearGradient id="paint56_linear_122_130" x1="977.5" y1="-30" x2="977.5" y2="268.818" gradientUnits="userSpaceOnUse">
<stop stop-color="#F7DD43"/>
<stop offset="1" stop-color="#F7DD43" stop-opacity="0"/>
</linearGradient>
<linearGradient id="paint57_linear_122_130" x1="977.5" y1="-30" x2="977.5" y2="268.818" gradientUnits="userSpaceOnUse">
<stop stop-color="#F7DD43"/>
<stop offset="1" stop-color="#F7DD43" stop-opacity="0"/>
</linearGradient>
<linearGradient id="paint58_linear_122_130" x1="977.5" y1="-30" x2="977.5" y2="268.818" gradientUnits="userSpaceOnUse">
<stop stop-color="#F7DD43"/>
<stop offset="1" stop-color="#F7DD43" stop-opacity="0"/>
</linearGradient>
<linearGradient id="paint59_linear_122_130" x1="977.5" y1="-30" x2="977.5" y2="268.818" gradientUnits="userSpaceOnUse">
<stop stop-color="#F7DD43"/>
<stop offset="1" stop-color="#F7DD43" stop-opacity="0"/>
</linearGradient>
<linearGradient id="paint60_linear_122_130" x1="977.5" y1="-30" x2="977.5" y2="268.818" gradientUnits="userSpaceOnUse">
<stop stop-color="#F7DD43"/>
<stop offset="1" stop-color="#F7DD43" stop-opacity="0"/>
</linearGradient>
<linearGradient id="paint61_linear_122_130" x1="977.5" y1="-30" x2="977.5" y2="268.818" gradientUnits="userSpaceOnUse">
<stop stop-color="#F7DD43"/>
<stop offset="1" stop-color="#F7DD43" stop-opacity="0"/>
</linearGradient>
<linearGradient id="paint62_linear_122_130" x1="977.5" y1="-30" x2="977.5" y2="268.818" gradientUnits="userSpaceOnUse">
<stop stop-color="#F7DD43"/>
<stop offset="1" stop-color="#F7DD43" stop-opacity="0"/>
</linearGradient>
<linearGradient id="paint63_linear_122_130" x1="977.5" y1="-30" x2="977.5" y2="268.818" gradientUnits="userSpaceOnUse">
<stop stop-color="#F7DD43"/>
<stop offset="1" stop-color="#F7DD43" stop-opacity="0"/>
</linearGradient>
<linearGradient id="paint64_linear_122_130" x1="977.5" y1="-30" x2="977.5" y2="268.818" gradientUnits="userSpaceOnUse">
<stop stop-color="#F7DD43"/>
<stop offset="1" stop-color="#F7DD43" stop-opacity="0"/>
</linearGradient>
<linearGradient id="paint65_linear_122_130" x1="977.5" y1="-30" x2="977.5" y2="268.818" gradientUnits="userSpaceOnUse">
<stop stop-color="#F7DD43"/>
<stop offset="1" stop-color="#F7DD43" stop-opacity="0"/>
</linearGradient>
<linearGradient id="paint66_linear_122_130" x1="977.5" y1="-30" x2="977.5" y2="268.818" gradientUnits="userSpaceOnUse">
<stop stop-color="#F7DD43"/>
<stop offset="1" stop-color="#F7DD43" stop-opacity="0"/>
</linearGradient>
<linearGradient id="paint67_linear_122_130" x1="977.5" y1="-30" x2="977.5" y2="268.818" gradientUnits="userSpaceOnUse">
<stop stop-color="#F7DD43"/>
<stop offset="1" stop-color="#F7DD43" stop-opacity="0"/>
</linearGradient>
<linearGradient id="paint68_linear_122_130" x1="977.5" y1="-30" x2="977.5" y2="268.818" gradientUnits="userSpaceOnUse">
<stop stop-color="#F7DD43"/>
<stop offset="1" stop-color="#F7DD43" stop-opacity="0"/>
</linearGradient>
<linearGradient id="paint69_linear_122_130" x1="977.5" y1="-30" x2="977.5" y2="268.818" gradientUnits="userSpaceOnUse">
<stop stop-color="#F7DD43"/>
<stop offset="1" stop-color="#F7DD43" stop-opacity="0"/>
</linearGradient>
<linearGradient id="paint70_linear_122_130" x1="977.5" y1="-30" x2="977.5" y2="268.818" gradientUnits="userSpaceOnUse">
<stop stop-color="#F7DD43"/>
<stop offset="1" stop-color="#F7DD43" stop-opacity="0"/>
</linearGradient>
<linearGradient id="paint71_linear_122_130" x1="977.5" y1="-30" x2="977.5" y2="268.818" gradientUnits="userSpaceOnUse">
<stop stop-color="#F7DD43"/>
<stop offset="1" stop-color="#F7DD43" stop-opacity="0"/>
</linearGradient>
<linearGradient id="paint72_linear_122_130" x1="977.5" y1="-30" x2="977.5" y2="268.818" gradientUnits="userSpaceOnUse">
<stop stop-color="#F7DD43"/>
<stop offset="1" stop-color="#F7DD43" stop-opacity="0"/>
</linearGradient>
<linearGradient id="paint73_linear_122_130" x1="977.5" y1="-30" x2="977.5" y2="268.818" gradientUnits="userSpaceOnUse">
<stop stop-color="#F7DD43"/>
<stop offset="1" stop-color="#F7DD43" stop-opacity="0"/>
</linearGradient>
<linearGradient id="paint74_linear_122_130" x1="977.5" y1="-30" x2="977.5" y2="268.818" gradientUnits="userSpaceOnUse">
<stop stop-color="#F7DD43"/>
<stop offset="1" stop-color="#F7DD43" stop-opacity="0"/>
</linearGradient>
<linearGradient id="paint75_linear_122_130" x1="977.5" y1="-30" x2="977.5" y2="268.818" gradientUnits="userSpaceOnUse">
<stop stop-color="#F7DD43"/>
<stop offset="1" stop-color="#F7DD43" stop-opacity="0"/>
</linearGradient>
<linearGradient id="paint76_linear_122_130" x1="977.5" y1="-30" x2="977.5" y2="268.818" gradientUnits="userSpaceOnUse">
<stop stop-color="#F7DD43"/>
<stop offset="1" stop-color="#F7DD43" stop-opacity="0"/>
</linearGradient>
<linearGradient id="paint77_linear_122_130" x1="977.5" y1="-30" x2="977.5" y2="268.818" gradientUnits="userSpaceOnUse">
<stop stop-color="#F7DD43"/>
<stop offset="1" stop-color="#F7DD43" stop-opacity="0"/>
</linearGradient>
<linearGradient id="paint78_linear_122_130" x1="977.5" y1="-30" x2="977.5" y2="268.818" gradientUnits="userSpaceOnUse">
<stop stop-color="#F7DD43"/>
<stop offset="1" stop-color="#F7DD43" stop-opacity="0"/>
</linearGradient>
<linearGradient id="paint79_linear_122_130" x1="977.5" y1="-30" x2="977.5" y2="268.818" gradientUnits="userSpaceOnUse">
<stop stop-color="#F7DD43"/>
<stop offset="1" stop-color="#F7DD43" stop-opacity="0"/>
</linearGradient>
<linearGradient id="paint80_linear_122_130" x1="977.5" y1="-30" x2="977.5" y2="268.818" gradientUnits="userSpaceOnUse">
<stop stop-color="#F7DD43"/>
<stop offset="1" stop-color="#F7DD43" stop-opacity="0"/>
</linearGradient>
<linearGradient id="paint81_linear_122_130" x1="977.5" y1="-30" x2="977.5" y2="268.818" gradientUnits="userSpaceOnUse">
<stop stop-color="#F7DD43"/>
<stop offset="1" stop-color="#F7DD43" stop-opacity="0"/>
</linearGradient>
<linearGradient id="paint82_linear_122_130" x1="977.5" y1="-30" x2="977.5" y2="268.818" gradientUnits="userSpaceOnUse">
<stop stop-color="#F7DD43"/>
<stop offset="1" stop-color="#F7DD43" stop-opacity="0"/>
</linearGradient>
<linearGradient id="paint83_linear_122_130" x1="977.5" y1="-30" x2="977.5" y2="268.818" gradientUnits="userSpaceOnUse">
<stop stop-color="#F7DD43"/>
<stop offset="1" stop-color="#F7DD43" stop-opacity="0"/>
</linearGradient>
<linearGradient id="paint84_linear_122_130" x1="977.5" y1="-30" x2="977.5" y2="268.818" gradientUnits="userSpaceOnUse">
<stop stop-color="#F7DD43"/>
<stop offset="1" stop-color="#F7DD43" stop-opacity="0"/>
</linearGradient>
<linearGradient id="paint85_linear_122_130" x1="977.5" y1="-30" x2="977.5" y2="268.818" gradientUnits="userSpaceOnUse">
<stop stop-color="#F7DD43"/>
<stop offset="1" stop-color="#F7DD43" stop-opacity="0"/>
</linearGradient>
<linearGradient id="paint86_linear_122_130" x1="977.5" y1="-30" x2="977.5" y2="268.818" gradientUnits="userSpaceOnUse">
<stop stop-color="#F7DD43"/>
<stop offset="1" stop-color="#F7DD43" stop-opacity="0"/>
</linearGradient>
<linearGradient id="paint87_linear_122_130" x1="977.5" y1="-30" x2="977.5" y2="268.818" gradientUnits="userSpaceOnUse">
<stop stop-color="#F7DD43"/>
<stop offset="1" stop-color="#F7DD43" stop-opacity="0"/>
</linearGradient>
<linearGradient id="paint88_linear_122_130" x1="977.5" y1="-30" x2="977.5" y2="268.818" gradientUnits="userSpaceOnUse">
<stop stop-color="#F7DD43"/>
<stop offset="1" stop-color="#F7DD43" stop-opacity="0"/>
</linearGradient>
<linearGradient id="paint89_linear_122_130" x1="977.5" y1="-30" x2="977.5" y2="268.818" gradientUnits="userSpaceOnUse">
<stop stop-color="#F7DD43"/>
<stop offset="1" stop-color="#F7DD43" stop-opacity="0"/>
</linearGradient>
<linearGradient id="paint90_linear_122_130" x1="977.5" y1="-30" x2="977.5" y2="268.818" gradientUnits="userSpaceOnUse">
<stop stop-color="#F7DD43"/>
<stop offset="1" stop-color="#F7DD43" stop-opacity="0"/>
</linearGradient>
<linearGradient id="paint91_linear_122_130" x1="977.5" y1="-30" x2="977.5" y2="268.818" gradientUnits="userSpaceOnUse">
<stop stop-color="#F7DD43"/>
<stop offset="1" stop-color="#F7DD43" stop-opacity="0"/>
</linearGradient>
<linearGradient id="paint92_linear_122_130" x1="977.5" y1="-30" x2="977.5" y2="268.818" gradientUnits="userSpaceOnUse">
<stop stop-color="#F7DD43"/>
<stop offset="1" stop-color="#F7DD43" stop-opacity="0"/>
</linearGradient>
<linearGradient id="paint93_linear_122_130" x1="977.5" y1="-30" x2="977.5" y2="268.818" gradientUnits="userSpaceOnUse">
<stop stop-color="#F7DD43"/>
<stop offset="1" stop-color="#F7DD43" stop-opacity="0"/>
</linearGradient>
<clipPath id="clip0_122_130">
<rect width="1024" height="753" fill="white"/>
</clipPath>
</defs>
</svg>
